<?xml version="1.0" encoding="UTF-8"?>
<svg width="2251px" height="395px" viewBox="0 0 2251 395" version="1.1" xmlns="http://www.w3.org/2000/svg" xmlns:xlink="http://www.w3.org/1999/xlink">
    <title>footer</title>
    <defs>
        <linearGradient x1="0%" y1="50%" x2="100%" y2="50%" id="linearGradient-1">
            <stop stop-color="#833AB4" offset="0%"></stop>
            <stop stop-color="#FD1D1D" offset="50%"></stop>
            <stop stop-color="#FCB045" offset="100%"></stop>
        </linearGradient>
    </defs>
    <g id="Page-1" stroke="none" stroke-width="1" fill="none" fill-rule="evenodd">
        <g id="footer" fill-rule="nonzero">
            <path d="M2198.35742,392.846823 L2192.97227,387.461668 C2191.50359,385.50343 2191.01403,382.566072 2191.01403,381.097394 C2191.01403,379.628715 2189.05579,377.670477 2187.09755,376.691358 L2178.28548,375.222679 C2175.34812,374.73312 2172.90033,373.754001 2170.94209,372.774881 L2156.2553,367.389726 C2155.27618,367.389726 2152.33883,365.431488 2151.84927,363.96281 L2137.65204,332.141439 C2136.67292,330.672761 2134.71468,328.224963 2133.246,327.245844 L2120.51746,312.559057 C2119.04878,311.090379 2117.09054,308.642581 2116.11142,306.684343 L2059.32251,206.814196 C2057.85383,205.345517 2057.85383,202.897719 2057.85383,201.429041 L2059.32251,168.138992 C2060.30163,166.180753 2059.32251,164.222515 2057.85383,162.264277 L2056.38515,161.285158 C2056.38515,159.816479 2054.42692,157.368682 2054.42692,155.900003 L2052.95824,148.06705 C2052.95824,146.108812 2051.48956,143.661014 2051.48956,141.702776 L2051,136.317621 C2051,134.848942 2051.48956,131.422026 2053.4478,130.932466 L2061.77031,124.078632 C2063.72855,123.589073 2064.21811,121.630835 2064.21811,119.672597 L2064.21811,108.412727 C2064.21811,106.944048 2065.19723,103.517132 2065.19723,102.048453 L2068.13458,91.2781429 C2069.1137,89.3199047 2069.60326,86.872107 2070.58238,85.4034284 L2081.35269,70.2270824 C2082.33181,68.2688443 2084.77961,66.8001656 2086.24829,66.8001656 L2086.73785,66.8001656 C2088.69608,66.8001656 2091.14388,66.3106061 2093.10212,64.3523679 L2107.78891,51.1342602 C2110.2367,49.176022 2111.70538,47.2177838 2112.19494,45.2595456 L2119.04878,30.5727592 C2119.53834,28.614521 2119.53834,26.1667233 2119.53834,24.2084851 L2118.06966,15.8859729 C2118.06966,13.4381751 2119.04878,11.479937 2119.53834,9.52169878 L2121.98613,8.05302014 C2123.45481,6.09478196 2126.39217,5.11566289 2127.37129,4.1365438 L2133.246,1.19918652 C2134.71468,0.220067439 2136.67292,1.19918652 2137.65204,2.66786516 L2139.61028,9.52169878 C2140.09984,11.479937 2141.07896,13.4381751 2141.07896,15.8859729 L2141.07896,47.2177838 C2141.07896,48.1969029 2141.07896,51.6238197 2141.56852,53.5820579 L2153.31794,83.4451902 C2153.8075,85.4034284 2155.76574,87.3616665 2156.2553,88.8303452 L2168.98385,103.027572 C2169.96297,103.517132 2172.41077,105.964929 2172.90033,107.433608 L2189.54535,135.338502 C2192.48271,139.254978 2191.50359,140.723657 2192.97227,146.108812 C2192.97227,148.06705 2194.44095,151.493967 2195.42007,152.962646 L2204.23214,178.419742 C2205.70082,182.336218 2213.53377,226.396577 2216.47113,244.510281 C2216.96069,245.978959 2216.47113,248.426757 2216.47113,250.384995 C2216.47113,252.343233 2216.47113,255.77015 2217.9398,257.728388 L2229.19967,286.122842 C2229.68923,288.08108 2231.64747,290.528878 2232.13703,291.997556 L2237.52219,304.236545 C2238.01175,306.194783 2238.01175,309.6217 2238.01175,311.090379 L2237.52219,314.027736 C2237.52219,315.985974 2237.03263,318.923331 2235.56395,320.88157 L2233.60571,325.287606 L2233.60571,332.141439 L2235.56395,341.93263 C2237.03263,343.401309 2238.01175,346.338666 2238.99087,347.317785 L2249.76118,358.577655 C2250.25073,360.046333 2251.71941,362.494131 2249.76118,362.983691 L2244.37602,372.285322 C2242.90734,373.754001 2241.43866,375.222679 2239.48042,375.222679 L2222.34584,381.097394 C2220.3876,381.097394 2216.96069,382.566072 2216.47113,384.034751 L2210.59641,391.867704 C2209.61729,393.336382 2207.65905,394.805061 2205.70082,394.805061 L2204.23214,394.805061 C2202.2739,394.805061 2199.8261,393.336382 2198.35742,392.846823 Z" id="Path" fill="#6EAC7D" transform="translate(2150.875418, 197.805061) scale(-1, 1) rotate(-180.000000) translate(-2150.875418, -197.805061) "></path>
            <path d="M1523.54705,81.1642482 C1553.01914,50.4650333 1600.77213,45.4963742 1632.88088,73.1197526 C1669.67705,104.824529 1671.61061,161.727506 1638.62296,196.094064 L1638.62296,196.094064 L1525.24624,314.277169 C1517.92216,321.90761 1506.02786,321.90761 1498.70378,314.277169 L1498.70378,314.277169 L1385.32705,196.094064 C1352.398,161.727506 1354.33156,104.824529 1391.12772,73.1197526 C1423.23648,45.4963742 1471.04806,50.4650333 1500.46156,81.1642482 L1500.46156,81.1642482 L1512.0043,93.171841 Z M218.053846,152.9 L218.053846,252.8 L218.055846,253.5565 C218.134513,268.3655 220.533846,279.113333 225.253846,285.8 C230.053846,292.6 237.853846,296 248.653846,296 C256.853846,296 264.353846,293.8 271.153846,289.4 C277.553846,285.4 284.753846,278.4 292.753846,268.4 L292.753846,268.4 L292.753846,152.9 L320.053846,152.9 L320.053846,315.8 L297.253846,315.8 L295.153846,290.3 L294.253846,290.3 L293.639034,291.015312 C285.648908,300.253438 277.753846,307.115 269.953846,311.6 C260.753846,317 250.853846,319.7 240.253846,319.7 C207.253846,319.7 190.753846,298.5 190.753846,256.1 L190.753846,256.1 L190.753846,152.9 L218.053846,152.9 Z M481.061539,77 L481.061539,285.2 L481.06378,285.593249 C481.150422,293.131083 483.749675,296.9 488.861539,296.9 C490.661539,296.9 492.561539,296.7 494.561539,296.3 L494.561539,296.3 L498.461539,317.3 L498.00733,317.468367 C493.881565,318.956122 488.732968,319.7 482.561539,319.7 C463.361539,319.7 453.761539,307.6 453.761539,283.4 L453.761539,283.4 L453.761539,77 L481.061539,77 Z M569.515385,107.3 L569.515385,152.9 L613.615385,152.9 L613.615385,175.1 L569.515385,175.1 L569.515385,266 L569.517634,266.645481 C569.589604,276.917201 571.388854,284.502041 574.915385,289.4 C578.915385,294.8 585.515385,297.5 594.715385,297.5 C599.915385,297.5 606.115385,296.1 613.315385,293.3 L613.315385,293.3 L618.715385,313.7 L617.927155,313.952603 C605.89094,317.784201 596.153683,319.7 588.715385,319.7 C557.715385,319.7 542.215385,301.6 542.215385,265.4 L542.215385,265.4 L542.215385,175.1 L517.915385,175.1 L517.915385,154.4 L543.415385,152.9 L546.715385,107.3 L569.515385,107.3 Z M1065.53077,107.3 L1065.53077,152.9 L1109.63077,152.9 L1109.63077,175.1 L1065.53077,175.1 L1065.53077,266 L1065.53302,266.645481 C1065.60499,276.917201 1067.40424,284.502041 1070.93077,289.4 C1074.93077,294.8 1081.53077,297.5 1090.73077,297.5 C1095.93077,297.5 1102.13077,296.1 1109.33077,293.3 L1109.33077,293.3 L1114.73077,313.7 L1113.94254,313.952603 C1101.90632,317.784201 1092.16907,319.7 1084.73077,319.7 C1053.73077,319.7 1038.23077,301.6 1038.23077,265.4 L1038.23077,265.4 L1038.23077,175.1 L1013.93077,175.1 L1013.93077,154.4 L1039.43077,152.9 L1042.73077,107.3 L1065.53077,107.3 Z M65.4,95.9 L66.90444,95.90537 C116.30148,96.25979 141,114.158 141,149.6 C141,160.8 138.2,170.7 132.6,179.3 C126.8,188.1 118.8,194.1 108.6,197.3 L108.6,197.3 L108.6,198.8 L109.336416,198.942156 C122.784758,201.600957 133.339286,207.153571 141,215.6 C149.4,225 153.6,236.9 153.6,251.3 C153.6,272.3 145.9,288.4 130.5,299.6 C115.7,310.4 95.6,315.8 70.2,315.8 L70.2,315.8 L0,315.8 L0,95.9 L65.4,95.9 Z M400.407693,152.9 L400.407693,315.8 L373.107693,315.8 L373.107693,152.9 L400.407693,152.9 Z M722.423078,152.9 L746.723078,247.1 L746.784411,247.425333 C747.390189,250.621778 748.369745,255.313333 749.723078,261.5 C752.723078,275.3 754.923078,285.7 756.323078,292.7 L756.323078,292.7 L757.823078,292.7 L757.89912,292.419271 C758.490092,290.22309 759.264745,287.016667 760.223078,282.8 C763.823078,267 766.723078,255.1 768.923078,247.1 L768.923078,247.1 L794.123078,152.9 L820.823078,152.9 L846.323078,247.1 L846.397183,247.41405 C847.202325,250.816804 848.477623,255.912121 850.223078,262.7 C853.423078,275.9 855.923078,285.9 857.723078,292.7 L857.723078,292.7 L858.923078,292.7 L859.026803,292.233236 C859.131981,291.759934 859.241518,291.26702 859.355412,290.754494 L859.355412,290.754494 L859.541363,289.917717 C860.363264,286.219163 861.394668,281.577841 862.635578,275.99375 L862.92566,274.688378 C863.366363,272.705217 863.832168,270.609091 864.323078,268.4 C866.323078,259 867.923078,251.9 869.123078,247.1 L869.123078,247.1 L893.123078,152.9 L918.923078,152.9 L875.123078,315.8 L842.123078,315.8 L818.423078,227.9 L818.316388,227.495963 C816.52477,220.694733 814.060333,210.529412 810.923078,197 C809.323078,190 808.123078,184.7 807.323078,181.1 L807.323078,181.1 L805.823078,181.1 L805.768533,181.216529 C805.586714,181.629752 805.404896,182.290909 805.223078,183.2 C800.823078,203.4 797.323078,218.5 794.723078,228.5 L794.723078,228.5 L771.923078,315.8 L739.823078,315.8 L694.523078,152.9 L722.423078,152.9 Z M980.076924,152.9 L980.076924,315.8 L952.776924,315.8 L952.776924,152.9 L980.076924,152.9 Z M1171.98462,77 L1171.98462,142.4 L1171.08462,176 L1171.6654,175.422239 C1189.66757,157.607413 1207.47398,148.7 1225.08462,148.7 C1257.95262,148.7 1274.55096,169.57613 1274.87964,211.32839 L1274.88462,212.6 L1274.88462,315.8 L1247.58462,315.8 L1247.58462,216.2 L1247.58257,215.443458 C1247.50227,200.632819 1245.05295,189.835 1240.23462,183.05 C1235.33462,176.15 1227.48462,172.7 1216.68462,172.7 C1208.68462,172.7 1201.18462,174.8 1194.18462,179 C1188.50545,182.329167 1181.29226,188.342882 1172.54504,197.041146 L1171.98462,197.6 L1171.98462,315.8 L1144.68462,315.8 L1144.68462,77 L1171.98462,77 Z M1781.1,152.9 L1781.1,315.8 L1753.8,315.8 L1753.8,152.9 L1781.1,152.9 Z M1914.85385,148.7 C1947.72185,148.7 1964.32019,169.57613 1964.64887,211.32839 L1964.65385,212.6 L1964.65385,315.8 L1937.35385,315.8 L1937.35385,216.2 L1937.35181,215.443458 C1937.2715,200.632819 1934.82218,189.835 1930.00385,183.05 C1925.10385,176.15 1917.25385,172.7 1906.45385,172.7 C1898.45385,172.7 1890.95385,174.8 1883.95385,179 C1878.27468,182.329167 1871.06149,188.342882 1862.31427,197.041146 L1861.75385,197.6 L1861.75385,315.8 L1834.45385,315.8 L1834.45385,152.9 L1856.95385,152.9 L1859.35385,176.3 L1860.25385,176.3 L1860.94477,175.627613 C1869.67903,167.168179 1877.74872,160.892308 1885.15385,156.8 C1894.75385,151.4 1904.65385,148.7 1914.85385,148.7 Z M66.3,210.8 L27.9,210.8 L27.9,293.6 L66.3,293.6 C106.3,293.6 126.3,279.2 126.3,250.4 C126.3,224 106.3,210.8 66.3,210.8 L66.3,210.8 Z M61.8,117.8 L27.9,117.8 L27.9,189.5 L60.6,189.5 C96,189.5 113.7,177.4 113.7,153.2 C113.7,140.6 109.3,131.5 100.5,125.9 C92.3,120.5 79.4,117.8 61.8,117.8 L61.8,117.8 Z M386.907693,83.9 C392.507693,83.9 397.057693,85.5 400.557693,88.7 C404.057693,91.9 405.807693,96.2 405.807693,101.6 C405.807693,106.6 404.007693,110.8 400.407693,114.2 C396.807693,117.6 392.307693,119.3 386.907693,119.3 C381.507693,119.3 377.007693,117.6 373.407693,114.2 C369.807693,110.8 368.007693,106.6 368.007693,101.6 C368.007693,96.2 369.757693,91.9 373.257693,88.7 C376.757693,85.5 381.307693,83.9 386.907693,83.9 Z M966.576924,83.9 C972.176924,83.9 976.726924,85.5 980.226924,88.7 C983.726924,91.9 985.476924,96.2 985.476924,101.6 C985.476924,106.6 983.676924,110.8 980.076924,114.2 C976.476924,117.6 971.976924,119.3 966.576924,119.3 C961.176924,119.3 956.676924,117.6 953.076924,114.2 C949.476924,110.8 947.676924,106.6 947.676924,101.6 C947.676924,96.2 949.426924,91.9 952.926924,88.7 C956.426924,85.5 960.976924,83.9 966.576924,83.9 Z M1767.6,83.9 C1773.2,83.9 1777.75,85.5 1781.25,88.7 C1784.75,91.9 1786.5,96.2 1786.5,101.6 C1786.5,106.6 1784.7,110.8 1781.1,114.2 C1777.5,117.6 1773,119.3 1767.6,119.3 C1762.2,119.3 1757.7,117.6 1754.1,114.2 C1750.5,110.8 1748.7,106.6 1748.7,101.6 C1748.7,96.2 1750.45,91.9 1753.95,88.7 C1757.45,85.5 1762,83.9 1767.6,83.9 Z" id="Combined-Shape" fill="url(#linearGradient-1)"></path>
        </g>
    </g>
</svg>