<?xml version="1.0" encoding="UTF-8"?>
<svg width="112px" height="128px" viewBox="0 0 112 128" version="1.1" xmlns="http://www.w3.org/2000/svg" xmlns:xlink="http://www.w3.org/1999/xlink">
    <g id="Page-1" stroke="none" stroke-width="1" fill="none" fill-rule="evenodd">
        <g id="user-astronaut-solid" fill="#000000" fill-rule="nonzero">
            <path d="M92.675,24.025 C86.525,9.875 72.425,0 56,0 C39.575,0 25.475,9.875 19.325,24.025 C15.225,24.375 12,27.8 12,32 L12,48 C12,52.2 15.225,55.625 19.325,55.975 C25.475,70.125 39.575,80 56,80 C72.425,80 86.525,70.125 92.675,55.975 C96.775,55.625 100,52.2 100,48 L100,32 C100,27.8 96.775,24.375 92.675,24.025 Z M84,36 L84,40 C84,53.25 73.25,64 60,64 L52,64 C38.75,64 28,53.25 28,40 L28,36 C28,29.375 33.375,24 40,24 L72,24 C78.625,24 84,29.375 84,36 Z M47.325,40.675 L45.825,35.375 C45.6,34.55 44.85,34 44,34 C43.15,34 42.4,34.55 42.175,35.375 L40.675,40.675 L35.375,42.175 C34.55,42.4 34,43.15 34,44 C34,44.85 34.55,45.6 35.375,45.825 L40.675,47.325 L42.175,52.625 C42.4,53.45 43.15,54 44,54 C44.85,54 45.6,53.45 45.825,52.625 L47.325,47.325 L52.625,45.825 C53.45,45.6 54,44.85 54,44 C54,43.15 53.45,42.4 52.625,42.175 L47.325,40.675 Z M28.175,79.125 C11.675,85.65 0,101.75 0,120.575 C0,124.675 3.325,128 7.425,128 L32,128 L32,112 C32,107.575 35.575,104 40,104 L72,104 C76.425,104 80,107.575 80,112 L80,128 L104.575,128 C108.675,128 112,124.675 112,120.575 C112,101.75 100.325,85.65 83.825,79.125 C75.975,84.7 66.375,88 56,88 C45.625,88 36.025,84.7 28.175,79.125 Z M44,112 C41.8,112 40,113.8 40,116 L40,128 L48,128 L48,116 C48,113.8 46.2,112 44,112 Z M68,120 C70.209139,120 72,118.209139 72,116 C72,113.790861 70.209139,112 68,112 C65.790861,112 64,113.790861 64,116 C64,118.209139 65.790861,120 68,120 Z" id="Shape"></path>
        </g>
    </g>
</svg>